<?xml version="1.0" encoding="utf-8"?>
<!-- Generator: Adobe Illustrator 24.2.1, SVG Export Plug-In . SVG Version: 6.00 Build 0)  -->
<svg version="1.1" id="Camada_1" xmlns="http://www.w3.org/2000/svg" xmlns:xlink="http://www.w3.org/1999/xlink" x="0px" y="0px"
	 viewBox="0 0 256 256" style="enable-background:new 0 0 256 256;" xml:space="preserve">
<style type="text/css">
	.st0{fill:#242938;}
	.st1{clip-path:url(#SVGID_1_);}
	.st2{fill:#FFFFFF;}
	.st3{fill:#FF6B00;}
	.st4{fill:#FF9447;}
	.st5{fill:#923B00;}
</style>
<path class="st0" d="M60,0h136c33.1,0,60,26.9,60,60v136c0,33.1-26.9,60-60,60H60c-33.1,0-60-26.9-60-60V60C0,26.9,26.9,0,60,0z"/>
<g>
	<defs>
		<rect id="SVGID_3_" x="28" y="28" width="200" height="200"/>
	</defs>
	<clipPath id="SVGID_1_">
		<use xlink:href="#SVGID_3_"  style="overflow:visible;"/>
	</clipPath>
	<g class="st1">
		<path class="st2" d="M115.3,59.3c16.6,0,33.2,0,49.8,0c-0.1,4.7,0.2,9.4-0.1,14c-10,0.1-20.1,0-30.1,0c0,6.2,0,12.4,0,18.6
			c8.5,0,17.1,0,25.6,0v13.8c-8.5,0-17.1,0-25.6,0v31.5c-6.5,0-13,0-19.5,0V59.3z"/>
		<path class="st2" d="M100.9,185.2c3.4-3.1,8.6-3.6,12.9-2.3c2.7,0.7,5.3,2.7,5.8,5.6c0.2,1.7,0.4,3.6-0.7,5.1
			c-1.1,1.6-2.9,2.4-4.7,2.8c2.6,0.5,5.5,2,6.2,4.8c0.5,2.7,0.4,5.8-1.5,8c-2.3,2.6-6,3.6-9.4,3.7c-3-0.1-6.2-0.6-8.6-2.5
			c-1.9-1.4-2.8-3.7-3.2-6c2.3-0.2,4.6,0,6.9-0.1c0.5,3.4,5,4.4,7.5,2.5c1.5-1.2,1.4-3.5,1-5.1c-1.3-2.6-4.7-2.3-7.1-2.3
			c0-1.7,0-3.3,0-5c1.7,0,3.4,0.2,5-0.5c1.8-0.9,1.9-3.5,1.1-5.1c-2-2.4-6.7-1.2-6.9,2.1c-2.3,0-4.6,0-7,0
			C98.6,188.7,99.3,186.6,100.9,185.2"/>
		<path class="st2" d="M129,183.8c3.7-2,8.2-1.9,12.1-0.5c3,1.1,5,4,5.1,7.2c-2.1,0-4.3,0-6.4,0c-0.5-3.4-5.2-3.9-7.4-1.8
			c-1.6,1.9-1,4.5-1.1,6.8c3.9-3.7,11.4-3.1,14.3,1.6c1.3,2.1,1.3,4.6,1.2,7c-0.2,3.4-2.7,6.4-5.8,7.7c-3.7,1.5-7.9,1.4-11.6-0.2
			c-3.1-1.5-5.1-4.5-5.2-7.9c-0.1-3.7,0-7.5,0-11.2C124.2,188.9,125.9,185.4,129,183.8 M131.4,200.3c0.1,1.8-0.4,3.9,0.6,5.5
			c1.4,1.9,4.4,2,6.2,0.7c1.6-1.4,1.5-3.8,1.2-5.8c-0.2-1.8-2.1-2.7-3.8-2.5C134,198.2,132.6,199.1,131.4,200.3"/>
		<path class="st2" d="M158.7,182.6c3.6-0.7,7.7-0.4,10.8,1.6c2.8,1.9,4,5.4,3.9,8.6c-0.1,3.6,0.1,7.1-0.1,10.7
			c-0.2,3.5-2.4,6.9-5.7,8.1c-4.1,1.5-8.9,1.4-12.6-0.9c-2.8-1.7-4.3-5.1-4.3-8.3c0-3.1,0-6.2,0-9.2c0-2.5,0.5-5.2,2-7.2
			C154.3,184.3,156.4,183,158.7,182.6 M160.5,187.7c-1.7,0.6-2.4,2.5-2.5,4.2c-0.1,3.4,0,6.8,0,10.2c0,1.6,0.3,3.6,1.7,4.6
			c2,1.2,5.3,0.8,6.1-1.6c0.8-2.7,0.3-5.5,0.4-8.3c-0.1-2.5,0.5-5.2-0.7-7.6C164.6,187.4,162.2,187.1,160.5,187.7"/>
		<path class="st3" d="M64.3,28c1.4,0.1,2.7,0.1,4.1,0.1c42.4,0,84.9,0,127.3,0c1.8,0,3.5-0.1,5.3,0.3c4.3,1.3,7.3,5.2,7.3,9.7
			c0,7.1,0,14.1,0,21.2c0,36.5,0,73,0,109.5c-48,0.1-96.1,0-144.1,0c0-35.7,0-71.4,0-107c0.5-8,0.2-16.1,0.3-24.2
			c0-3.2,0.1-6.3-0.1-9.4L64.3,28z M115.3,59.3v77.9c6.5,0,13,0,19.5,0v-31.4c8.5,0,17.1,0,25.6,0V92c-8.5,0-17.1,0-25.6,0
			c-0.1-6.2,0-12.4,0-18.6c10,0,20.1,0,30.1,0c0.3-4.6,0-9.3,0.1-14C148.4,59.3,131.9,59.3,115.3,59.3"/>
		<path class="st4" d="M59.9,30.5c1.4-0.8,2.8-1.9,4.4-2.4c0.2,3.2,0.1,6.3,0.1,9.4c-0.1,8.1,0.2,16.1-0.3,24.2c0,35.7,0,71.4,0,107
			c-4.6,2.7-9.2,5.6-13.8,8.3c-5.5,3.3-11,6.7-16.6,10c0-46.9,0-93.8,0-140.7C42.5,41,51.2,35.8,59.9,30.5"/>
		<path class="st5" d="M208.3,59.2c4.6,0,9.3,0,13.9,0c0,56.3,0,112.5,0,168.8c-54,0-108,0-162,0c-5.3,0.2-9.9-4.7-9.9-9.9
			c0-13.7-0.1-27.3,0.1-41c4.6-2.7,9.2-5.6,13.8-8.3c48-0.1,96.1,0,144.1,0C208.3,132.2,208.3,95.7,208.3,59.2 M100.9,185.2
			c-1.6,1.4-2.4,3.4-2.7,5.5c2.3,0,4.6,0,7,0c0.2-3.3,4.9-4.4,6.9-2.1c0.9,1.6,0.8,4.2-1.1,5.1c-1.6,0.7-3.3,0.5-5,0.5
			c0,1.7,0,3.3,0,5c2.4,0,5.9-0.3,7.1,2.3c0.5,1.7,0.5,3.9-1,5.1c-2.5,1.9-7,0.9-7.5-2.5c-2.3,0.1-4.6-0.1-6.9,0.1
			c0.5,2.3,1.4,4.5,3.2,6c2.4,1.9,5.6,2.4,8.6,2.5c3.4-0.1,7-1,9.4-3.7c1.9-2.1,2-5.3,1.5-8c-0.8-2.8-3.6-4.3-6.2-4.8
			c1.8-0.5,3.6-1.3,4.7-2.8c1.1-1.4,0.9-3.4,0.7-5.1c-0.5-2.9-3.2-4.8-5.8-5.6C109.5,181.6,104.4,182,100.9,185.2 M129.1,183.7
			c-3.1,1.7-4.9,5.2-5,8.6c0,3.7,0,7.5,0,11.2c0.2,3.4,2.2,6.4,5.2,7.9c3.7,1.6,7.9,1.7,11.6,0.2c3.1-1.2,5.6-4.2,5.8-7.7
			c0.2-2.4,0.1-4.9-1.2-7c-2.9-4.7-10.4-5.4-14.3-1.6c0.1-2.3-0.5-4.9,1.1-6.8c2.1-2.1,6.9-1.5,7.4,1.8c2.1,0,4.3,0,6.4,0
			c-0.1-3.2-2.1-6.1-5.1-7.2C137.3,181.8,132.7,181.7,129.1,183.7 M158.8,182.5c-2.4,0.5-4.5,1.7-6,3.6c-1.6,2-2,4.7-2,7.2
			c0,3.1,0,6.2,0,9.2c0,3.2,1.4,6.6,4.3,8.3c3.7,2.3,8.6,2.4,12.6,0.9c3.4-1.2,5.5-4.6,5.7-8.1c0.2-3.6,0-7.1,0.1-10.7
			c0.1-3.3-1.1-6.8-3.9-8.6C166.4,182.2,162.3,181.9,158.8,182.5"/>
		<path class="st5" d="M160.5,187.7c1.7-0.6,4.1-0.3,5,1.5c1.1,2.3,0.6,5.1,0.7,7.6c-0.1,2.7,0.4,5.6-0.4,8.3
			c-0.8,2.5-4.1,2.8-6.1,1.6c-1.4-1-1.7-3-1.7-4.6c0-3.4,0-6.8,0-10.2C158.1,190.2,158.8,188.3,160.5,187.7"/>
		<path class="st5" d="M131.4,200.3c1.2-1.1,2.7-2,4.3-2c1.6-0.3,3.5,0.7,3.8,2.5c0.2,2,0.4,4.4-1.2,5.8c-1.8,1.3-4.8,1.2-6.2-0.7
			C131,204.1,131.5,202.1,131.4,200.3"/>
	</g>
</g>
</svg>
