<svg id="Camada_1" data-name="Camada 1" xmlns="http://www.w3.org/2000/svg" xmlns:xlink="http://www.w3.org/1999/xlink" viewBox="0 0 256 256"><defs><style>.cls-1{fill:none;}.cls-2{fill:#fff;}.cls-3{clip-path:url(#clip-path);}.cls-4{fill:#ff6b00;}.cls-5{fill:#ff9447;}.cls-6{fill:#923b00;}</style><clipPath id="clip-path"><rect class="cls-1" x="28" y="28" width="200" height="200"/></clipPath></defs><rect class="cls-2" width="256" height="256" rx="60"/><g class="cls-3"><path class="cls-2" d="M115.27,59.33H165c-.11,4.65.2,9.41-.14,14-10,.06-20.09,0-30.14,0,0,6.21,0,12.43,0,18.64,8.53,0,17.06,0,25.59,0v13.78H134.75v31.46H115.27Z"/><path class="cls-2" d="M100.93,185.17c3.43-3.11,8.58-3.56,12.89-2.33,2.67.75,5.31,2.7,5.81,5.6.2,1.67.38,3.6-.69,5.06a7.83,7.83,0,0,1-4.67,2.82c2.64.51,5.48,2,6.23,4.78.5,2.7.39,5.83-1.55,8-2.32,2.64-6,3.56-9.37,3.65-3-.06-6.23-.56-8.64-2.5a10,10,0,0,1-3.24-6c2.3-.21,4.61,0,6.92-.11.54,3.39,5,4.37,7.52,2.48,1.47-1.22,1.41-3.46,1-5.14-1.28-2.63-4.68-2.31-7.13-2.3v-4.95c1.67,0,3.41.21,5-.48,1.84-.9,1.95-3.51,1.09-5.1-2-2.37-6.66-1.23-6.86,2.06-2.32,0-4.64,0-7,0a9.33,9.33,0,0,1,2.71-5.48"/><path class="cls-2" d="M129.05,183.76a15.19,15.19,0,0,1,12.06-.52,7.9,7.9,0,0,1,5.11,7.23c-2.13,0-4.27,0-6.41,0-.45-3.38-5.24-3.9-7.36-1.85-1.58,1.91-1,4.54-1.09,6.81,3.94-3.75,11.4-3.1,14.28,1.65,1.3,2.07,1.32,4.63,1.17,7a9.24,9.24,0,0,1-5.82,7.65,15.19,15.19,0,0,1-11.62-.2,9.17,9.17,0,0,1-5.23-7.89c-.07-3.75,0-7.49,0-11.23a10,10,0,0,1,5-8.64m2.33,16.49c.09,1.84-.39,3.88.64,5.55,1.4,1.89,4.4,2,6.22.68,1.65-1.42,1.48-3.85,1.25-5.8a3.24,3.24,0,0,0-3.78-2.47,6.37,6.37,0,0,0-4.33,2"/><path class="cls-2" d="M158.75,182.6c3.6-.68,7.65-.42,10.8,1.65,2.8,1.88,4,5.4,3.92,8.65-.05,3.56.09,7.14-.07,10.71a9.27,9.27,0,0,1-5.75,8.14A14.87,14.87,0,0,1,155,210.9a9.67,9.67,0,0,1-4.29-8.3c0-3.08,0-6.16,0-9.24a11.68,11.68,0,0,1,2-7.21,10.2,10.2,0,0,1,6-3.55m1.75,5.11c-1.71.57-2.44,2.48-2.49,4.15-.07,3.4,0,6.81,0,10.22,0,1.63.26,3.57,1.7,4.59,2,1.2,5.3.83,6.11-1.63.79-2.68.28-5.52.43-8.26-.14-2.52.45-5.23-.71-7.58-.92-1.77-3.27-2.12-5-1.49"/><path class="cls-4" d="M64.32,28c1.35.12,2.74.1,4.12.09H195.75a24,24,0,0,1,5.28.3A10.13,10.13,0,0,1,208.31,38V168.71c-48,.06-96.07,0-144.1,0v-107c.51-8,.15-16.11.26-24.17,0-3.15.12-6.26-.13-9.39Zm51,31.33v77.9h19.48V105.78h25.62V92H134.78c-.07-6.21,0-12.42,0-18.64,10.05,0,20.1,0,30.14,0,.34-4.59,0-9.35.14-14q-24.87,0-49.76,0"/><path class="cls-5" d="M60,30.51a21.56,21.56,0,0,1,4.38-2.36c.25,3.15.08,6.26.13,9.39-.1,8.06.25,16.13-.26,24.17v107c-4.63,2.7-9.2,5.55-13.83,8.31q-8.26,5-16.56,10V46.36C42.46,41,51.24,35.8,60,30.51"/><path class="cls-6" d="M208.31,59.24h13.88V228h-162c-5.33.23-9.94-4.7-9.87-9.92,0-13.67-.1-27.35.06-41,4.62-2.73,9.18-5.59,13.83-8.28,48-.1,96.06,0,144.1-.05q0-54.74,0-109.48M100.93,185.17a9.26,9.26,0,0,0-2.7,5.48c2.32,0,4.64,0,7,0,.2-3.29,4.87-4.43,6.85-2.06.86,1.6.76,4.23-1.09,5.11-1.56.68-3.31.45-5,.47v5c2.45,0,5.85-.33,7.13,2.29.45,1.68.51,3.92-1,5.14-2.49,1.89-7,.9-7.52-2.48-2.31.07-4.62-.1-6.92.12a9.77,9.77,0,0,0,3.24,6c2.41,2,5.62,2.45,8.63,2.5,3.4-.09,7.05-1,9.38-3.65,1.94-2.13,2-5.26,1.54-8-.75-2.78-3.6-4.28-6.23-4.79a7.72,7.72,0,0,0,4.68-2.82c1.06-1.45.9-3.38.69-5.06-.5-2.88-3.15-4.84-5.82-5.59-4.3-1.23-9.45-.79-12.88,2.33m28.11-1.43a10,10,0,0,0-4.95,8.63c0,3.75,0,7.49,0,11.23a9.18,9.18,0,0,0,5.24,7.86,15.15,15.15,0,0,0,11.62.21,9.19,9.19,0,0,0,5.82-7.65c.15-2.36.13-4.92-1.18-7-2.87-4.75-10.35-5.4-14.27-1.65.12-2.25-.5-4.89,1.08-6.8,2.13-2.06,6.93-1.54,7.37,1.84,2.14,0,4.28,0,6.41,0a7.91,7.91,0,0,0-5.12-7.23,15.12,15.12,0,0,0-12.05.53m29.71-1.17a10.2,10.2,0,0,0-6,3.63,11.36,11.36,0,0,0-2,7.21c0,3.08,0,6.16,0,9.24a9.67,9.67,0,0,0,4.29,8.3,14.84,14.84,0,0,0,12.63.85,9.27,9.27,0,0,0,5.75-8.14c.16-3.57,0-7.15.07-10.71.05-3.26-1.12-6.76-3.92-8.65-3.15-2.07-7.2-2.33-10.8-1.65"/><path class="cls-6" d="M160.5,187.71c1.73-.63,4.08-.28,5,1.49,1.14,2.35.56,5.06.7,7.58-.15,2.74.36,5.58-.43,8.26-.81,2.46-4.12,2.83-6.11,1.63-1.44-1-1.7-3-1.69-4.59,0-3.41,0-6.82,0-10.22.05-1.67.77-3.58,2.49-4.15"/><path class="cls-6" d="M131.37,200.25a6.44,6.44,0,0,1,4.33-2,3.24,3.24,0,0,1,3.78,2.47c.23,1.95.4,4.38-1.25,5.8-1.82,1.28-4.82,1.21-6.22-.68-1-1.67-.55-3.71-.64-5.55"/></g></svg>