<svg id="Logo" xmlns="http://www.w3.org/2000/svg" xmlns:xlink="http://www.w3.org/1999/xlink" viewBox="0 0 256 256"><defs><style>.cls-1{fill:none;}.cls-2{fill:#242938;}.cls-3{clip-path:url(#clip-path);}.cls-4{fill:#fff;}.cls-5{fill:#7fc5de;}.cls-6{fill:#39a5cc;}.cls-7{fill:#36687f;}</style><clipPath id="clip-path"><rect id="Mask" class="cls-1" x="28" y="28" width="200" height="200"/></clipPath></defs><rect id="BG-Dark" class="cls-2" width="256" height="256" rx="60"/><g class="cls-3"><path class="cls-4" d="M96,59.35c8.17,0,16.33.08,24.48-.06,5.41,20.87,10.53,41.82,15.8,62.71,5.46-20.92,10.89-41.86,16.61-62.71,7.79.13,15.59.09,23.38,0,.15,26,.08,52.08,0,78.1-6.12-.1-12.25,0-18.38-.06,0-16.78,0-33.54,0-50.3-4.28,16.77-8.52,33.59-13.08,50.3-6.14-.08-12.29.18-18.42-.17-4.4-17.43-9.07-34.81-13.7-52.16.22,17.4.1,34.87.1,52.3q-8.43.07-16.83,0c.08-26,0-52,0-78"/><path class="cls-4" d="M107.16,182.29c3.29,0,6.57,0,9.87.05,3,9.88,6,19.75,8.89,29.61q-3.81,0-7.63-.12-.83-3.15-1.67-6.3c-3-.05-5.93-.05-8.9,0q-.8,3.18-1.6,6.38H98.66c2.91-9.86,5.68-19.76,8.48-29.65m4.91,5.55c-1.06,4-2,8-2.84,12.1h5.86c-.89-4.06-1.87-8.1-3-12.1"/><path class="cls-4" d="M123.06,182.34h7.85c1.83,4.12,3.51,8.3,5.43,12.37q2.68-6.15,5.27-12.34c2.58,0,5.16-.05,7.76-.05-2.87,4.87-5.29,10-8,15-2.78,4.36-1.07,9.76-1.53,14.63h-7.4c-.14-4,.35-8-.27-12-2.87-5.93-6.05-11.73-9.13-17.56"/><path class="cls-4" d="M155,182.36l9.91-.07c3,9.89,5.85,19.79,8.93,29.63-2.59,0-5.17,0-7.74-.16-.51-2.1-1.06-4.19-1.7-6.25-3-.07-5.9-.07-8.85.12-.5,2.1-1.05,4.2-1.59,6.3l-7.42,0q4.29-14.78,8.46-29.57m5,5c-1.06,4.16-1.95,8.36-3.06,12.5,2,0,4.06.1,6.07.15-1.12-4.19-2-8.44-3-12.66"/><path class="cls-5" d="M33.85,46.35C43.9,40.15,54,34.09,64.2,28c.16,46.86-.1,93.72.12,140.58-4.72,2.57-9.22,5.52-13.84,8.26-5.57,3.29-11,6.74-16.63,10q-.06-70.23,0-140.49"/><path class="cls-6" d="M64.2,28q67-.06,134,0c5-.13,9.89,4.12,10,9.23.24,7.3,0,14.61.08,21.9.16,36.44.09,72.88,0,109.32-48,.25-96-.11-144,.16-.22-46.86,0-93.72-.12-140.58M96.05,59.38c0,26,.06,52,0,78q8.4.09,16.83,0c0-17.42.12-34.87-.1-52.3,4.62,17.38,9.3,34.74,13.69,52.17,6.14.35,12.29.09,18.42.16,4.56-16.7,8.8-33.52,13.08-50.29,0,16.75,0,33.51,0,50.29,6.14,0,12.26,0,18.38.07.06-26,.12-52.08,0-78.11-7.78.06-15.58.1-23.37,0-5.73,20.85-11.16,41.78-16.61,62.7-5.28-20.89-10.39-41.84-15.81-62.7-8.15.14-16.31.06-24.48.06"/><path class="cls-7" d="M208.31,59.15q6.93,0,13.87,0V228c-54-.12-108,0-162-.08-5.47-.08-10.4-5.11-9.82-10.68V176.88c4.63-2.74,9.13-5.69,13.84-8.26,48-.27,96,.09,144.05-.16,0-36.44.12-72.88,0-109.31M107.16,182.29c-2.82,9.89-5.59,19.79-8.48,29.65h7.46q.8-3.19,1.6-6.38c3-.08,5.93-.08,8.9,0q.84,3.15,1.67,6.3c2.54.08,5.08.11,7.63.12-3-9.86-6-19.73-8.91-29.61-3.3,0-6.58,0-9.87-.05m15.9.05c3.08,5.84,6.25,11.64,9.13,17.57.62,4,.13,8,.27,12h7.42c.44-4.87-1.26-10.26,1.52-14.63,2.68-5,5.1-10.09,8-15-2.6,0-5.18,0-7.76,0q-2.6,6.21-5.27,12.35c-1.92-4.08-3.6-8.25-5.43-12.37h-7.85m31.94,0q-4.14,14.82-8.46,29.55c2.47,0,5,0,7.42,0,.55-2.1,1.09-4.2,1.6-6.3,2.94-.19,5.89-.19,8.85-.12.64,2,1.19,4.13,1.69,6.25,2.58.19,5.15.2,7.74.16-3.08-9.84-6-19.74-8.92-29.63l-9.92.07"/><path class="cls-7" d="M112.05,187.84c1.14,4,2.1,8,3,12.1h-5.85c.8-4.07,1.78-8.09,2.84-12.1"/><path class="cls-7" d="M160,187.32c1,4.22,1.88,8.48,3,12.66l-6.07-.16c1.11-4.14,2-8.34,3.06-12.49"/></g></svg>