<svg id="Logo" xmlns="http://www.w3.org/2000/svg" viewBox="0 0 256 256"><defs><style>.cls-1{fill:#1e3101;}.cls-2{fill:#99e83f;}</style></defs><g id="Layer_2" data-name="Layer 2"><g id="Surfaces"><g id="_3D_Substance_Surface" data-name=" 3D Substance Surface"><g id="Outline_no_shadow" data-name="Outline no shadow"><path class="cls-1" d="M45.33,0H210.67C235.7,0,256,20.82,256,46.5v163c0,25.68-20.3,46.5-45.33,46.5H45.33C20.3,256,0,235.18,0,209.5V46.5C0,20.82,20.3,0,45.33,0Z" transform="translate(0 0)"/></g></g></g><g id="Outlined_Mnemonics_Logos" data-name="Outlined Mnemonics Logos"><g id="Pt"><path class="cls-2" d="M55.37,179.52V67c0-.82.35-1.23,1-1.23q2.74,0,6.53-.09l8.15-.18,9.28-.17c3.26-.06,6.5-.09,9.7-.09q13.05,0,22,3.35a37.88,37.88,0,0,1,14.34,9A34.6,34.6,0,0,1,134.2,90a42.16,42.16,0,0,1,2.4,14.18q0,14.08-6.35,23.25a36,36,0,0,1-17.18,13.29,66.68,66.68,0,0,1-24,4.14c-2.52,0-4.29,0-5.32-.08s-2.58-.09-4.64-.09v34.7a1.39,1.39,0,0,1-1.16,1.58,1.21,1.21,0,0,1-.38,0h-21Q55.37,180.93,55.37,179.52Zm23.7-92.65v36.47c1.49.11,2.86.17,4.12.17h5.67a39.63,39.63,0,0,0,12.28-1.76,18.52,18.52,0,0,0,8.76-5.81q3.34-4.05,3.35-11.28A18.2,18.2,0,0,0,110.76,95a16.21,16.21,0,0,0-7.47-6.26,31.16,31.16,0,0,0-12.54-2.2q-4.12,0-7.3.09c-2.12.06-3.58.15-4.38.26Z" transform="translate(0 0)"/><path class="cls-2" d="M200.31,163.49v14.45c0,1.29-.45,2.05-1.37,2.29a60.16,60.16,0,0,1-6.87,1.76,43,43,0,0,1-8.24.7q-11.18,0-17.52-6T160,157.51V113.82H149.82c-.91,0-1.37-.52-1.37-1.58V94.8c0-.94.52-1.41,1.55-1.41h10.13q.17-3,.43-7t.68-7.93c.29-2.64.55-4.79.78-6.43a3.22,3.22,0,0,1,.51-1,1.82,1.82,0,0,1,.86-.61l20.44-2.65a1.44,1.44,0,0,1,.94.05c.23.12.26.42.26,1q-.34,4.05-.52,11t-.34,13.47h16c.69,0,1,.47,1,1.41v17.79a1.07,1.07,0,0,1-.86,1.23H184v37.7q0,6,2,8.54c1.32,1.7,3.75,2.56,7.3,2.55,1,0,2,0,2.92-.08s1.83-.15,2.75-.27a1,1,0,0,1,.94.09C200.17,162.53,200.31,162.91,200.31,163.49Z" transform="translate(0 0)"/></g></g></g></svg>